<?xml version="1.0" encoding="UTF-8" standalone="no"?>
<!-- Created with Inkscape (http://www.inkscape.org/) -->

<svg
   width="100mm"
   height="100mm"
   viewBox="0 0 100 100"
   version="1.1"
   id="svg5"
   inkscape:version="1.2.2 (b0a8486541, 2022-12-01)"
   sodipodi:docname="fedora_silverblue-s.svg"
   inkscape:export-filename="../logo-pngs/fedora_silverblue.png"
   inkscape:export-xdpi="96"
   inkscape:export-ydpi="96"
   xmlns:inkscape="http://www.inkscape.org/namespaces/inkscape"
   xmlns:sodipodi="http://sodipodi.sourceforge.net/DTD/sodipodi-0.dtd"
   xmlns="http://www.w3.org/2000/svg"
   xmlns:svg="http://www.w3.org/2000/svg">
  <sodipodi:namedview
     id="namedview7"
     pagecolor="#505050"
     bordercolor="#ffffff"
     borderopacity="1"
     inkscape:showpageshadow="0"
     inkscape:pageopacity="0"
     inkscape:pagecheckerboard="1"
     inkscape:deskcolor="#505050"
     inkscape:document-units="mm"
     showgrid="false"
     inkscape:zoom="1.76315"
     inkscape:cx="8048.6628"
     inkscape:cy="155.97085"
     inkscape:window-width="2560"
     inkscape:window-height="1403"
     inkscape:window-x="0"
     inkscape:window-y="0"
     inkscape:window-maximized="1"
     inkscape:current-layer="g290238"
     showguides="true" />
  <defs
     id="defs2">
    <clipPath
       id="clipPath10667-36"
       clipPathUnits="userSpaceOnUse">
      <path
         sodipodi:nodetypes="ssssssssssssssssss"
         style="fill:#7bcf3e;fill-opacity:1;stroke:none"
         d="m 6926.3942,-16.111198 c -6.0323,-2.2e-5 -10.8899,3.303726 -10.8899,7.4061379 V 27.580368 c 0,4.102412 4.8576,7.401908 10.8899,7.401908 h 108.883 c 6.0324,0 10.8903,-3.299496 10.8903,-7.401908 V -8.7050601 c 0,-4.1024119 -4.8579,-7.4061379 -10.8903,-7.4061379 z m 0,57.153809 c -6.0323,0 -10.8899,3.303748 -10.8899,7.40616 v 7.406138 c 0,4.102412 4.8576,7.401886 10.8899,7.401886 h 108.883 c 6.0324,0 10.8903,-3.299474 10.8903,-7.401886 v -7.406138 c 0,-4.102412 -4.8579,-7.40616 -10.8903,-7.40616 z"
         id="path10669-7"
         inkscape:connector-curvature="0" />
    </clipPath>
    <clipPath
       id="clipPath1368-4-3"
       clipPathUnits="userSpaceOnUse">
      <path
         inkscape:connector-curvature="0"
         id="path1370-9-6"
         d="m -74.26666,269.02574 c -9.375235,0 -16.922606,7.54737 -16.922606,16.9226 0,19.33359 0.162339,54.34811 0.162339,54.34811 H -36.1905 c 9.37522,0 16.92259,-7.54739 16.92259,-16.92259 v -54.34812 z"
         style="opacity:1;vector-effect:none;fill:#db3279;fill-opacity:1;stroke:none;stroke-width:10;stroke-linecap:round;stroke-linejoin:miter;stroke-miterlimit:4;stroke-dasharray:none;stroke-dashoffset:0;stroke-opacity:0.956863;marker:none;paint-order:normal"
         sodipodi:nodetypes="sscsscs" />
    </clipPath>
    <clipPath
       id="clipPath1368-4-3-3"
       clipPathUnits="userSpaceOnUse">
      <path
         inkscape:connector-curvature="0"
         id="path1370-9-6-6"
         d="m -74.26666,269.02574 c -9.375235,0 -16.922606,7.54737 -16.922606,16.9226 0,19.33359 0.162339,54.34811 0.162339,54.34811 H -36.1905 c 9.37522,0 16.92259,-7.54739 16.92259,-16.92259 v -54.34812 z"
         style="opacity:1;vector-effect:none;fill:#db3279;fill-opacity:1;stroke:none;stroke-width:10;stroke-linecap:round;stroke-linejoin:miter;stroke-miterlimit:4;stroke-dasharray:none;stroke-dashoffset:0;stroke-opacity:0.956863;marker:none;paint-order:normal"
         sodipodi:nodetypes="sscsscs" />
    </clipPath>
  </defs>
  <g
     inkscape:label="Layer 1"
     inkscape:groupmode="layer"
     id="layer1"
     transform="translate(-1980)">
    <g
       id="g290238"
       transform="matrix(0.69218462,0,0,0.69218462,2049.1843,16.959675)">
      <g
         transform="matrix(0.50568351,0,0,0.50568351,117.69755,-474.437)"
         id="g26021"
         style="display:inline;stroke-width:0.523219">
        <g
           id="g26019"
           transform="translate(15.434597,40)"
           style="stroke-width:0.523219">
          <g
             aria-label="SILVERBLUE"
             id="text26017"
             style="font-size:18.1899px;line-height:0%;letter-spacing:0px;word-spacing:0px;fill:#294172;stroke-width:0.558102" />
        </g>
      </g>
      <g
         id="g2239"
         style="fill:#51a2da;fill-opacity:1;stroke-width:1.10633"
         transform="matrix(0.31388904,0,0,0.31388904,-99.736274,22.919129)">
        <g
           style="fill:#51a2da;fill-opacity:1;stroke-width:1.80156"
           transform="matrix(1.7992734,0,0,1.7380239,67.446745,-121.99926)"
           id="g2231" />
        <g
           style="fill:#51a2da;fill-opacity:1;stroke-width:1.84795"
           transform="matrix(1.7361841,0,0,1.7118711,84.821887,-122.89238)"
           id="g2237" />
      </g>
      <path
         id="path1370-9-6-5"
         style="opacity:1;vector-effect:none;fill:#000000;fill-opacity:1;stroke:none;stroke-width:10;stroke-linecap:round;stroke-linejoin:miter;stroke-miterlimit:4;stroke-dasharray:none;stroke-dashoffset:0;stroke-opacity:0.956863;marker:none;paint-order:normal"
         d="m -66.027249,10.573691 c -5.124224,0 -9.250003,4.125034 -9.250003,9.249257 0,10.567165 0.08884,29.705277 0.08884,29.705277 h 29.972549 c 5.124217,0 9.249256,-4.125798 9.249256,-9.250004 v -29.70453 z m 1.757426,7.067779 c 2.318213,0 4.227827,1.909411 4.227827,4.227826 0,1.791337 -1.142024,3.334583 -2.72946,3.945623 v 9.626275 L -50.92115,23.673756 c -0.262791,-0.54909 -0.415093,-1.159918 -0.415093,-1.80446 0,-2.318415 1.909448,-4.227826 4.227827,-4.227826 2.318211,0 4.227826,1.909384 4.227826,4.227826 0,2.318443 -1.909615,4.2286 -4.227826,4.228573 -0.658316,0 -1.280995,-0.157948 -1.838802,-0.431517 l -11.823431,11.741307 h 9.84278 c 0.611067,-1.587672 2.153918,-2.72946 3.944876,-2.72946 2.318547,0 4.227827,1.909409 4.227827,4.227826 0,2.318414 -1.90928,4.227827 -4.227827,4.227827 -1.86275,0 -3.459495,-1.23382 -4.0158,-2.921329 H -65.57632 v -14.32668 c -1.687279,-0.556388 -2.921329,-2.153483 -2.921329,-4.016547 0,-2.318442 1.909281,-4.227826 4.227826,-4.227826 z m 0,2.80561 c -0.8024,0 -1.422962,0.619794 -1.422962,1.422216 0,0.802448 0.620562,1.423737 1.422962,1.42371 0.802401,0 1.422963,-0.621287 1.422963,-1.42371 0,-0.802422 -0.620562,-1.422216 -1.422963,-1.422216 z m 17.161407,0 c -0.802567,0 -1.422963,0.619794 -1.422963,1.422216 0,0.802423 0.620396,1.42371 1.422963,1.42371 0.8024,2.7e-5 1.422962,-0.621262 1.422962,-1.42371 0,-0.802422 -0.620562,-1.422216 -1.422962,-1.422216 z m 0.126917,17.035983 c -0.802401,0 -1.422963,0.62054 -1.422963,1.422962 0,0.802419 0.620562,1.422963 1.422963,1.422963 0.802567,0 1.422962,-0.620544 1.422962,-1.422963 0,-0.802422 -0.620395,-1.422962 -1.422962,-1.422962 z m -27.509577,24.038909 v 6.165525 c -0.0016,0.760064 1.155462,0.760064 1.1538,0 v -4.114539 h 1.186749 c 0.277535,0 0.514802,-0.200889 0.514802,-0.523421 0,-0.322531 -0.25418,-0.518423 -0.514802,-0.518423 h -1.186748 v -0.948331 c 0,-0.606815 0.474777,-1.11122 1.430418,-1.099527 0.3324,0.0043 0.45022,0.0842 0.571622,0.158203 0.662753,0.438978 1.300788,-0.577686 0.606612,-0.966595 -0.425736,-0.260518 -0.823511,-0.352338 -1.298116,-0.352338 -1.495665,0 -2.455589,1.136055 -2.464337,2.199446 z m 15.10929,-2.089507 c -0.361594,-0.02155 -0.627793,0.336341 -0.572323,0.676379 v 2.625265 c -1.141429,-0.956998 -3.000349,-0.890449 -4.054059,0.169245 -1.065594,0.949514 -1.268024,2.671396 -0.493019,3.857182 0.569288,0.895204 1.610677,1.533572 2.683886,1.482885 0.674839,-0.0061 1.344293,-0.296783 1.863192,-0.727131 -0.05324,0.339742 0.209122,0.698571 0.572323,0.676761 0.356519,0.01591 0.632559,-0.336003 0.577832,-0.676374 -0.0062,-2.524982 0.0062,-5.050114 -0.0062,-7.575004 -0.01855,-0.284756 -0.2909,-0.518885 -0.575174,-0.509208 z m -2.503924,3.772529 c 1.030492,-0.02692 1.950981,0.90082 1.931601,1.921847 0.02166,1.021984 -0.901976,1.948107 -1.931601,1.921858 -0.978985,0.02595 -1.876378,-0.803352 -1.9264,-1.775557 -0.104248,-1.002188 0.718486,-1.979025 1.726255,-2.058567 0.06649,-0.0065 0.13329,-0.0096 0.200145,-0.0096 z m 17.256455,-1.174034 c -0.78695,0 -1.354479,0.233414 -1.768184,0.529439 -0.627156,0.449004 0.04774,1.387798 0.674898,0.938793 0.285435,-0.204242 0.497693,-0.313214 1.093286,-0.313214 0.74134,0.01488 1.337648,0.293569 1.337648,0.848015 -0.397456,0.251496 -2.125539,0.459376 -3.053478,0.987057 -0.927939,0.527676 -0.878772,1.193679 -0.878772,1.625822 0,0.947923 0.999169,1.587409 1.864598,1.587409 0.86543,0 1.232836,-0.181529 2.079517,-0.761725 v 0.166054 c -0.02736,0.796286 1.183926,0.796286 1.156566,0 v -3.403051 c 0.0037,-1.411333 -1.009624,-2.183105 -2.506079,-2.204599 z m 1.377764,3.140013 c -2.89e-4,0.374218 0.0052,0.482099 -0.0051,0.856188 -0.0022,0.449257 -0.284466,0.657513 -0.579979,0.829402 -0.295509,0.171894 -0.895782,0.322677 -1.243575,0.339151 -0.401162,0.01327 -0.933405,-0.07736 -0.961357,-0.553124 2.89e-4,-0.287175 0.139395,-0.465291 0.367819,-0.663633 0.540906,-0.405809 1.273801,-0.542045 2.422177,-0.807984 z m -7.117523,-3.127676 c -0.500804,0 -0.58428,0.413293 -0.581662,0.579992 v 5.019071 c -0.01368,0.324455 0.254885,0.594709 0.59105,0.594709 0.336163,0 0.604761,-0.270254 0.591044,-0.594709 0,0 0.0089,-1.866603 0,-3.061491 -0.0089,-1.194883 0.963592,-1.453864 1.301977,-1.453864 0.251281,0 0.452047,0.13996 0.651163,0.132475 0.295529,-0.01112 0.538191,-0.209298 0.538191,-0.556827 -0.0089,-0.561404 -0.697678,-0.641102 -1.2055,-0.630732 -0.507826,0.01037 -0.936708,0.166306 -1.308042,0.38806 0,0 -0.07741,-0.416684 -0.578221,-0.416684 z m -4.55696,-0.04019 a 3.1525386,3.1270773 0 0 0 -3.152896,3.127434 3.1525386,3.1270773 0 0 0 3.152896,3.126628 3.1525386,3.1270773 0 0 0 3.152086,-3.126628 3.1525386,3.1270773 0 0 0 -3.152086,-3.127434 z m 0,1.171386 a 1.9719388,1.9560126 0 0 1 1.971974,1.956048 1.9719388,1.9560126 0 0 1 -1.971974,1.956049 1.9719388,1.9560126 0 0 1 -1.971976,-1.956049 1.9719388,1.9560126 0 0 1 1.971976,-1.956048 z m -14.448075,-0.906924 c -1.128548,0.436162 -1.894493,1.507586 -1.897639,2.830125 -0.0033,1.385358 0.96757,3.173241 2.978175,3.186444 1.352353,0.0089 2.028637,-0.496833 2.393727,-0.840219 0.242175,-0.214602 0.259116,-0.587004 0.03721,-0.822309 -0.222353,-0.235746 -0.595639,-0.241399 -0.824524,-0.01209 -0.272512,0.256014 -0.673813,0.635391 -1.811932,0.509047 -0.488334,-0.05404 -1.013026,-0.45052 -1.18817,-0.75388 l 3.728953,-1.585366 c 0.285136,-0.126683 0.416132,-0.457661 0.295435,-0.745239 -0.665683,-1.309894 -1.845991,-2.487394 -3.711233,-1.766518 z m 2.340572,1.723236 -3.103008,1.325397 c -0.22156,-0.826871 0.686616,-1.799694 1.182005,-1.980718 0.74276,-0.271414 1.56229,0.03401 1.921003,0.655321 z m 84.020198,14.89079 h 5.483371 V 77.55367 h -5.483371 v -3.358752 h 6.155122 V 72.835792 H 15.424512 V 83.7713 h 7.936038 v -1.359126 h -6.373829 z m -9.3889085,5.01466 c 2.8900915,0 4.6241505,-1.671533 4.6241505,-4.84283 v -6.21763 h -1.515347 v 6.155132 c 0,2.421416 -1.1247942,3.515005 -3.0931792,3.515005 -1.9683905,0 -3.0775608,-1.093589 -3.0775608,-3.515005 V 72.835792 H 2.973662 v 6.21763 c 0,3.171297 1.749678,4.84283 4.6241505,4.84283 z M 1.4583044,83.7713 V 82.412174 H -4.4624803 V 72.835792 H -6.0246944 V 83.7713 Z M -10.49263,78.100465 c 0.8592152,-0.421794 1.4684853,-1.249745 1.4684853,-2.437041 0,-1.765294 -1.4059933,-2.827632 -3.9211563,-2.827632 h -4.905355 V 83.7713 h 5.217796 c 2.7651194,0 4.1867314,-1.077915 4.1867314,-2.952584 0,-1.45288 -0.8123474,-2.374592 -2.0465014,-2.718251 z m -2.593273,-3.999248 c 1.593462,0 2.499544,0.593618 2.499544,1.749662 0,1.156045 -0.906082,1.749668 -2.499544,1.749668 h -3.202539 v -3.49933 z m -3.202539,8.404712 v -3.639962 h 3.593096 c 1.734054,0 2.671385,0.562372 2.671385,1.827796 0,1.265371 -0.937331,1.812166 -2.671385,1.812166 z m -6.49879,-2.405843 c 1.530967,-0.546741 2.40581,-1.765288 2.40581,-3.452501 0,-2.374538 -1.718434,-3.811793 -4.561665,-3.811793 h -4.264844 V 83.7713 h 1.562214 v -3.327501 h 2.70263 c 0.234334,0 0.468662,-0.01569 0.687375,-0.03133 l 2.358943,3.358747 h 1.702808 z m -4.858485,-0.984161 v -4.921007 h 2.655763 c 1.999634,0 3.046319,0.89046 3.046319,2.452667 0,1.56226 -1.046685,2.46834 -3.046319,2.46834 z m -10.466825,-0.234333 h 5.483364 V 77.55367 h -5.483364 v -3.358752 h 6.155119 v -1.359126 h -7.717332 V 83.7713 h 7.93604 v -1.359126 h -6.373827 z m -8.482831,2.936959 -3.936776,-8.982759 h -1.687188 l 4.811614,10.935508 h 1.546592 l 4.795994,-10.935508 h -1.562213 z m -4.952209,1.952749 v -1.359126 h -5.92079 v -9.576382 h -1.562214 V 83.7713 Z m -10.763641,0 V 72.835792 h -1.562213 V 83.7713 Z m -8.076645,0.124952 c 2.890093,0 4.233597,-1.4372 4.233597,-3.108788 0,-4.014873 -6.623786,-2.34334 -6.623786,-5.014713 0,-0.952958 0.79673,-1.734037 2.655764,-1.734037 0.968571,0 2.046496,0.28121 2.999447,0.89046 l 0.515534,-1.249751 c -0.906084,-0.624923 -2.233968,-0.968583 -3.514981,-0.968583 -2.874472,0 -4.186731,1.437201 -4.186731,3.124414 0,4.061751 6.623782,2.374591 6.623782,5.045965 0,0.952957 -0.812351,1.687159 -2.702626,1.687159 -1.405992,0 -2.796364,-0.531115 -3.608714,-1.265371 l -0.578022,1.218494 c 0.874843,0.812385 2.515164,1.374751 4.186736,1.374751 z" />
    </g>
  </g>
</svg>
