<?xml version="1.0" encoding="UTF-8" standalone="no"?>
<svg
   xmlns:dc="http://purl.org/dc/elements/1.1/"
   xmlns:cc="http://creativecommons.org/ns#"
   xmlns:rdf="http://www.w3.org/1999/02/22-rdf-syntax-ns#"
   xmlns:svg="http://www.w3.org/2000/svg"
   xmlns="http://www.w3.org/2000/svg"
   xmlns:sodipodi="http://sodipodi.sourceforge.net/DTD/sodipodi-0.dtd"
   xmlns:inkscape="http://www.inkscape.org/namespaces/inkscape"
   sodipodi:docname="silverblue-standalone.svg"
   inkscape:version="1.0beta1 (fe3e306978, 2019-09-17)"
   id="svg1681"
   version="1.1"
   viewBox="0 0 210 297"
   height="297mm"
   width="210mm">
  <defs
     id="defs1675" />
  <sodipodi:namedview
     inkscape:window-maximized="1"
     inkscape:window-y="0"
     inkscape:window-x="3440"
     inkscape:window-height="1403"
     inkscape:window-width="2560"
     showgrid="false"
     inkscape:document-rotation="0"
     inkscape:current-layer="layer1"
     inkscape:document-units="mm"
     inkscape:cy="560"
     inkscape:cx="400"
     inkscape:zoom="0.35"
     inkscape:pageshadow="2"
     inkscape:pageopacity="0.0"
     borderopacity="1.0"
     bordercolor="#666666"
     pagecolor="#ffffff"
     id="base" />
  <metadata
     id="metadata1678">
    <rdf:RDF>
      <cc:Work
         rdf:about="">
        <dc:format>image/svg+xml</dc:format>
        <dc:type
           rdf:resource="http://purl.org/dc/dcmitype/StillImage" />
        <dc:title></dc:title>
      </cc:Work>
    </rdf:RDF>
  </metadata>
  <g
     id="layer1"
     inkscape:groupmode="layer"
     inkscape:label="Layer 1">
    <path
       inkscape:connector-curvature="0"
       id="path1651"
       style="font-style:normal;font-variant:normal;font-weight:600;font-stretch:normal;font-size:34.735px;line-height:1.25;font-family:Montserrat;-inkscape-font-specification:'Montserrat Semi-Bold';font-variant-ligatures:normal;font-variant-caps:normal;font-variant-numeric:normal;font-variant-east-asian:normal;letter-spacing:0px;word-spacing:0px;opacity:1;fill:#000000;fill-opacity:0.94902;stroke:none;stroke-width:0.264583;stop-opacity:1"
       d="m 131.56455,141.41558 v -1.77374 h 3.10632 v -0.98335 h -3.10632 v -1.67264 h 3.5015 v -1.00174 h -4.69624 v 6.43321 h 4.82491 v -1.00174 z m -5.6796,1.09363 c 1.75534,0 2.81223,-1.0201 2.81223,-2.89494 v -3.63016 h -1.17636 v 3.5842 c 0,1.32342 -0.58818,1.8932 -1.62668,1.8932 -1.03851,0 -1.63588,-0.56978 -1.63588,-1.8932 v -3.5842 h -1.19474 v 3.63016 c 0,1.87484 1.05689,2.89494 2.82143,2.89494 z m -8.17936,-0.0919 h 4.55839 v -1.01094 h -3.36366 v -5.42227 h -1.19473 z m -2.43543,-3.34528 c 0.49628,-0.26652 0.82713,-0.75359 0.82713,-1.41529 0,-1.02012 -0.82713,-1.67264 -2.3711,-1.67264 h -3.01442 v 6.43321 h 3.19822 c 1.65426,0 2.51815,-0.64333 2.51815,-1.74617 0,-0.83629 -0.46871,-1.37853 -1.15798,-1.59911 z m -1.67264,-2.15051 c 0.82713,0 1.29584,0.29408 1.29584,0.89143 0,0.5882 -0.46871,0.88228 -1.29584,0.88228 h -1.69101 v -1.77371 z m 0.23895,4.55837 h -1.92996 v -1.85645 h 1.92996 c 0.90065,0 1.38774,0.28491 1.38774,0.92824 0,0.64331 -0.48709,0.92821 -1.38774,0.92821 z m -4.347,0.93742 -1.47964,-2.11378 c 0.87308,-0.34004 1.36935,-1.05688 1.36935,-2.03105 0,-1.42449 -1.04769,-2.28838 -2.73871,-2.28838 h -2.6468 v 6.43321 h 1.19474 v -1.87484 h 1.45206 c 0.0827,0 0.16543,0 0.24814,-0.009 l 1.31422,1.88402 z m -1.31422,-4.14483 c 0,0.80875 -0.54222,1.28664 -1.58992,1.28664 h -1.39692 v -2.5641 h 1.39692 c 1.0477,0 1.58992,0.46871 1.58992,1.27746 z m -9.144329,3.14309 v -1.77374 h 3.106319 v -0.98335 h -3.106319 v -1.67264 h 3.501509 v -1.00174 h -4.696248 v 6.43321 h 4.824908 v -1.00174 z m -3.069532,-5.43147 -2.159722,4.96276 -2.141339,-4.96276 h -1.295834 l 2.812232,6.43321 h 1.176359 l 2.803043,-6.43321 z m -9.73251,6.43321 h 4.55839 v -1.01094 h -3.363651 v -5.42227 h -1.194739 z m -2.931692,0 h 1.194739 v -6.43321 h -1.194739 z m -3.786402,0.0919 c 1.764538,0 2.600857,-0.88225 2.600857,-1.91156 0,-2.36191 -3.813976,-1.47045 -3.813976,-2.83983 0,-0.48707 0.404373,-0.87307 1.396925,-0.87307 0.56061,0 1.19474,0.16542 1.77373,0.50546 l 0.376801,-0.92821 c -0.560607,-0.36761 -1.369354,-0.56981 -2.141339,-0.56981 -1.764538,0 -2.591665,0.88228 -2.591665,1.9208 0,2.38948 3.823166,1.47963 3.823166,2.86737 0,0.47789 -0.422754,0.83632 -1.424499,0.83632 -0.790366,0 -1.608301,-0.29411 -2.122958,-0.70765 l -0.413565,0.92821 c 0.533038,0.4595 1.534782,0.77197 2.536523,0.77197 z M 90.198111,70.66936 c -7.699502,0 -13.897859,6.198356 -13.897859,13.897859 0,15.877921 0.133323,44.633971 0.133323,44.633971 h 45.034975 c 7.6995,0 13.89786,-6.19836 13.89786,-13.89786 V 70.66936 Z m -0.437701,9.027356 c 2.186858,0 3.988388,1.801016 3.988388,3.987869 0,1.701252 -1.09224,3.164633 -2.606043,3.732588 V 112.65646 L 104.67681,99.167361 V 87.472468 c -1.59163,-0.524669 -2.75539,-2.030571 -2.75539,-3.787883 1e-5,-2.186853 1.80102,-3.987869 3.98788,-3.987869 2.18685,0 3.98838,1.801016 3.98838,3.987869 0,1.689663 -1.07731,3.144991 -2.57503,3.721221 v 9.124506 l 11.17916,-11.141954 c -0.2486,-0.51844 -0.39222,-1.095007 -0.39222,-1.703773 0,-2.186853 1.80101,-3.987869 3.98786,-3.987869 2.18686,0 3.98839,1.801016 3.98839,3.987869 0,2.186855 -1.80153,3.987871 -3.98839,3.987871 -0.61995,0 -1.2065,-0.148937 -1.73219,-0.406178 l -11.11095,11.07426 h 9.24027 c 0.57636,-1.497587 2.03207,-2.57452 3.72173,-2.57452 2.18686,0 3.98787,1.801016 3.98787,3.987871 0,2.186851 -1.80101,3.987871 -3.98787,3.987871 -1.75731,0 -3.2636,-1.16375 -3.7884,-2.75539 h -11.82822 l -13.578496,13.53354 h 25.418086 c 0.5342,-1.57549 2.03131,-2.72438 3.77703,-2.72438 2.18686,0 3.98787,1.80102 3.98787,3.98787 0,2.18686 -1.80101,3.98839 -3.98787,3.98839 -1.70125,0 -3.16501,-1.09224 -3.7331,-2.60605 H 88.496922 V 87.461099 c -1.575488,-0.534064 -2.72438,-2.030791 -2.72438,-3.776514 0,-2.186853 1.801013,-3.987869 3.987868,-3.987869 z m 0,2.645833 c -0.756988,0 -1.342035,0.585147 -1.342035,1.342036 0,0.75689 0.585047,1.342038 1.342035,1.342038 0.756992,0 1.342555,-0.585148 1.342555,-1.342038 0,-0.756889 -0.585563,-1.342036 -1.342555,-1.342036 z m 16.14889,0 c -0.757,0 -1.34204,0.585147 -1.34204,1.342036 0,0.75689 0.58504,1.342038 1.34204,1.342038 0.75699,0 1.34255,-0.585148 1.34255,-1.342038 0,-0.756889 -0.58556,-1.342036 -1.34255,-1.342036 z m 16.18815,0 c -0.75698,0 -1.34203,0.585147 -1.34203,1.342036 0,0.75689 0.58505,1.342038 1.34203,1.342038 0.757,0 1.34256,-0.585148 1.34256,-1.342038 0,-0.756889 -0.58556,-1.342036 -1.34256,-1.342036 z m 0.11886,16.069302 c -0.75699,0 -1.34255,0.585147 -1.34255,1.342038 0,0.756891 0.58556,1.342031 1.34255,1.342031 0.75699,0 1.34204,-0.58514 1.34204,-1.342031 0,-0.756891 -0.58505,-1.342038 -1.34204,-1.342038 z m 0,16.029509 c -0.75699,0 -1.34255,0.58515 -1.34255,1.34204 0,0.75689 0.58556,1.34255 1.34255,1.34255 0.75699,0 1.34204,-0.58566 1.34204,-1.34255 0,-0.75689 -0.58505,-1.34204 -1.34204,-1.34204 z" />
  </g>
</svg>
