<?xml version="1.0" encoding="UTF-8" standalone="no"?>
<svg
   xmlns:dc="http://purl.org/dc/elements/1.1/"
   xmlns:cc="http://creativecommons.org/ns#"
   xmlns:rdf="http://www.w3.org/1999/02/22-rdf-syntax-ns#"
   xmlns:svg="http://www.w3.org/2000/svg"
   xmlns="http://www.w3.org/2000/svg"
   xmlns:sodipodi="http://sodipodi.sourceforge.net/DTD/sodipodi-0.dtd"
   xmlns:inkscape="http://www.inkscape.org/namespaces/inkscape"
   sodipodi:docname="silverblue-subbrand.svg"
   inkscape:version="1.0beta1 (fe3e306978, 2019-09-17)"
   id="svg1681"
   version="1.1"
   viewBox="0 0 210 297"
   height="297mm"
   width="210mm">
  <defs
     id="defs1675">
    <clipPath
       id="clipPath1368-4"
       clipPathUnits="userSpaceOnUse">
      <path
         inkscape:connector-curvature="0"
         id="path1370-9"
         d="m -74.26666,269.02574 c -9.375235,0 -16.922606,7.54737 -16.922606,16.9226 0,19.33359 0.162339,54.34811 0.162339,54.34811 H -36.1905 c 9.37522,0 16.92259,-7.54739 16.92259,-16.92259 v -54.34812 z"
         style="opacity:1;vector-effect:none;fill:#db3279;fill-opacity:1;stroke:none;stroke-width:10;stroke-linecap:round;stroke-linejoin:miter;stroke-miterlimit:4;stroke-dasharray:none;stroke-dashoffset:0;stroke-opacity:0.956863;marker:none;paint-order:normal"
         sodipodi:nodetypes="sscsscs" />
    </clipPath>
  </defs>
  <sodipodi:namedview
     inkscape:window-maximized="1"
     inkscape:window-y="0"
     inkscape:window-x="3440"
     inkscape:window-height="1403"
     inkscape:window-width="2560"
     showgrid="false"
     inkscape:document-rotation="0"
     inkscape:current-layer="layer1"
     inkscape:document-units="mm"
     inkscape:cy="758.60219"
     inkscape:cx="720.22535"
     inkscape:zoom="0.5"
     inkscape:pageshadow="2"
     inkscape:pageopacity="0.0"
     borderopacity="1.0"
     bordercolor="#666666"
     pagecolor="#ffffff"
     id="base" />
  <metadata
     id="metadata1678">
    <rdf:RDF>
      <cc:Work
         rdf:about="">
        <dc:format>image/svg+xml</dc:format>
        <dc:type
           rdf:resource="http://purl.org/dc/dcmitype/StillImage" />
        <dc:title></dc:title>
      </cc:Work>
    </rdf:RDF>
  </metadata>
  <g
     id="layer1"
     inkscape:groupmode="layer"
     inkscape:label="Layer 1">
    <g
       id="g418"
       transform="matrix(0.11201198,0,0,0.11201198,67.732189,124.38509)"
       style="opacity:1;stroke-width:2.36209;stop-opacity:1;fill:#000000" />
    <g
       style="font-style:normal;font-variant:normal;font-weight:600;font-stretch:normal;font-size:10.7767px;line-height:1.25;font-family:Montserrat;-inkscape-font-specification:'Montserrat Semi-Bold';font-variant-ligatures:normal;font-variant-caps:normal;font-variant-numeric:normal;font-variant-east-asian:normal;letter-spacing:0px;word-spacing:0px;opacity:1;fill:#000000;fill-opacity:0.94902;stroke:none;stroke-width:0.264583;stop-opacity:1"
       id="text440"
       aria-label="SILVERBLUE">
      <path
         inkscape:connector-curvature="0"
         d="m 133.19489,187.6496 v -2.0799 h 3.64252 v -1.15311 h -3.64252 v -1.96136 h 4.10592 v -1.17466 h -5.50689 v 7.54369 h 5.65776 v -1.17466 z m -6.66,1.28243 c 2.05835,0 3.29767,-1.19621 3.29767,-3.39466 v -4.2568 h -1.37942 v 4.20292 c 0,1.55184 -0.6897,2.22 -1.90747,2.22 -1.21777,0 -1.91825,-0.66816 -1.91825,-2.22 v -4.20292 h -1.40097 v 4.2568 c 0,2.19845 1.23932,3.39466 3.30844,3.39466 z m -9.59125,-0.10777 h 5.34524 v -1.18543 h -3.94427 v -6.35826 h -1.40097 z m -2.85582,-3.92271 c 0.58194,-0.31253 0.9699,-0.88369 0.9699,-1.65962 0,-1.19621 -0.9699,-1.96136 -2.78039,-1.96136 h -3.53475 v 7.54369 h 3.75029 c 1.9398,0 2.95281,-0.75436 2.95281,-2.04757 0,-0.98068 -0.54961,-1.6165 -1.35786,-1.87514 z m -1.96136,-2.52175 c 0.9699,0 1.51951,0.34485 1.51951,1.04534 0,0.68971 -0.54961,1.03456 -1.51951,1.03456 h -1.98291 v -2.0799 z m 0.28019,5.34524 h -2.2631 v -2.17689 h 2.2631 c 1.05612,0 1.62728,0.33408 1.62728,1.08844 0,0.75437 -0.57116,1.08845 -1.62728,1.08845 z m -5.09736,1.09922 -1.73505,-2.47864 c 1.02379,-0.39873 1.60573,-1.23932 1.60573,-2.38165 0,-1.67039 -1.22855,-2.6834 -3.21146,-2.6834 h -3.10369 v 7.54369 h 1.40097 v -2.19844 h 1.70272 c 0.097,0 0.19398,0 0.29097,-0.0108 l 1.54107,2.20922 z m -1.54107,-4.86029 c 0,0.94835 -0.63583,1.50874 -1.86437,1.50874 h -1.63806 v -3.0067 h 1.63806 c 1.22854,0 1.86437,0.54961 1.86437,1.49796 z m -10.722803,3.68563 v -2.0799 h 3.64253 v -1.15311 h -3.64253 v -1.96136 h 4.10592 v -1.17466 h -5.50689 v 7.54369 h 5.65777 v -1.17466 z m -3.59938,-6.36903 -2.532528,5.81942 -2.510972,-5.81942 h -1.519514 l 3.29767,7.54369 h 1.379418 l 3.286896,-7.54369 z m -11.412506,7.54369 h 5.345244 v -1.18543 h -3.944273 v -6.35826 h -1.400971 z m -3.437749,0 h 1.400971 v -7.54369 h -1.400971 z m -4.439997,0.10777 c 2.069126,0 3.049806,-1.03456 3.049806,-2.24155 0,-2.76961 -4.472331,-1.72427 -4.472331,-3.33 0,-0.57117 0.474175,-1.02379 1.638059,-1.02379 0.657378,0 1.400971,0.19398 2.079903,0.59272 l 0.441845,-1.08845 c -0.657379,-0.43107 -1.605729,-0.66815 -2.510972,-0.66815 -2.069126,0 -3.039029,1.03456 -3.039029,2.25233 0,2.80194 4.483107,1.73505 4.483107,3.36233 0,0.56039 -0.495728,0.98068 -1.670388,0.98068 -0.926796,0 -1.885923,-0.34486 -2.489418,-0.82981 l -0.484951,1.08845 c 0.625048,0.53883 1.799708,0.90524 2.974369,0.90524 z m 5.38229,-30.109 c -0.218607,-0.0323 -0.441405,-0.0487 -0.662699,-0.0487 -2.476688,0 -4.491765,2.01518 -4.491765,4.49198 v 1.4031 H 70.91602 c -0.538027,0 -0.978466,0.44033 -0.978466,0.97815 0,0.53834 0.440439,1.08089 0.978466,1.08089 h 1.467484 v 7.52819 c 0,0.66033 0.538134,1.19847 1.198254,1.19847 0.660551,0 1.198578,-0.53825 1.198578,-1.19847 v -7.52819 h 1.622573 c 0.53792,0 0.978144,-0.54255 0.978144,-1.08089 0,-0.53782 -0.440117,-0.97815 -0.978144,-0.97815 h -1.62182 v -1.4031 c 0,-1.15484 0.939452,-2.24992 2.094287,-2.24992 0.104036,0 0.208826,0.008 0.311573,0.0229 0.65507,0.0969 1.264353,-0.19969 1.361513,-0.85487 0.09673,-0.65486 -0.355426,-1.26425 -1.010387,-1.36141 z m 24.946905,1.10142 c 0,-0.66012 -0.53792,-1.17385 -1.19815,-1.17385 -0.66033,0 -1.19868,0.51373 -1.19868,1.17385 v 6.31016 c -0.611223,-1.12495 -1.931893,-1.88309 -3.497293,-1.88309 -3.17937,0 -5.30708,2.39672 -5.30708,5.60049 0,3.20409 2.20112,5.6007 5.30708,5.6007 1.38548,0 2.58675,-0.57177 3.30619,-1.56571 l 0.266123,0.67484 c 0.16486,0.46344 0.60681,0.7949 1.12613,0.7949 0.65733,0 1.19579,-0.53513 1.19579,-1.19514 0,-0.002 0,-0.003 0,-0.005 v 0 -14.33199 h -1.1e-4 z m -5.600713,13.50045 c -1.95639,0 -3.20376,-1.5654 -3.20376,-3.47278 0,-1.90739 1.24726,-3.47289 3.20376,-3.47289 1.95672,0 3.203883,1.49188 3.203883,3.47289 0,1.98057 -1.247163,3.47278 -3.203883,3.47278 z m 39.456123,-3.47289 c 0.0246,-3.00805 -2.12793,-5.60049 -5.60081,-5.60049 -3.10607,0 -5.62521,2.49463 -5.62521,5.60049 0,3.10618 2.44573,5.6007 5.4052,5.6007 1.47694,0 2.80621,-0.76028 3.39927,-1.55453 l 0.29201,0.74115 v 0 c 0.1567,0.41637 0.55834,0.71279 1.02941,0.71279 0.60714,0 1.09938,-0.49182 1.10013,-1.09852 v 0 -2.87263 0 z m -5.60081,3.47289 c -1.95672,0 -3.22838,-1.5654 -3.22838,-3.47278 0,-1.90739 1.27166,-3.47289 3.22838,-3.47289 1.9565,0 3.22838,1.5655 3.22838,3.47289 0,1.90738 -1.27188,3.47278 -3.22838,3.47278 z m -7.04337,-9.07338 c -1.64095,0 -2.72635,0.48536 -3.68461,1.70361 l -0.0884,-0.56662 v 0 c -0.0744,-0.59155 -0.57898,-1.04833 -1.18988,-1.04833 -0.6628,0 -1.20029,0.53674 -1.20029,1.19987 0,9e-4 0,0.002 0,0.003 v 0 0.001 0 8.61274 c 0,0.66033 0.53791,1.19847 1.19836,1.19847 0.66033,0 1.19847,-0.53825 1.19847,-1.19847 v -4.62225 c 0,-2.1032 1.83419,-3.15507 3.7664,-3.15507 0.58704,0 1.05145,-0.48913 1.05145,-1.07617 0,-0.58703 -0.46441,-1.05155 -1.05145,-1.05155 z m -13.68734,11.2013 c -3.10596,0 -5.60038,-2.49453 -5.60038,-5.6007 0,-3.10586 2.49442,-5.6005 5.60038,-5.6005 3.10629,0 5.60071,2.49464 5.60071,5.6005 1e-4,3.10617 -2.49432,5.6007 -5.60071,5.6007 z m 0,-9.0737 c -1.95639,0 -3.22838,1.5655 -3.22838,3.47289 0,1.90738 1.27199,3.47278 3.22838,3.47278 1.95661,0 3.2287,-1.5654 3.2287,-3.47278 0,-1.90739 -1.27209,-3.47289 -3.2287,-3.47289 z m -21.594714,4.20695 c 0,0 0,0 -7.557315,0 0.122308,1.63827 1.442979,2.86135 3.203766,2.86135 1.247264,0 2.323534,-0.51363 3.179477,-1.34496 0.171318,-0.17186 0.366924,-0.22065 0.586929,-0.22065 0.293519,0 0.587143,0.14703 0.782643,0.39164 0.122416,0.17121 0.195823,0.36693 0.195823,0.56232 0,0.26912 -0.122415,0.56242 -0.342636,0.78275 -1.027259,1.10035 -2.76365,1.83419 -4.475857,1.83419 -3.105962,0 -5.600492,-2.49452 -5.600492,-5.6007 0,-3.10586 2.42123,-5.60049 5.527194,-5.60049 3.081672,0 5.380594,2.39672 5.380594,5.55148 2.24e-4,0.46494 -0.415504,0.78307 -0.880126,0.78307 z m -4.500361,-4.32904 c -1.638586,0 -2.763543,1.07605 -3.008053,2.6408 3.692892,0 6.016318,0 6.016318,0 -0.220111,-1.49134 -1.394076,-2.6408 -3.008265,-2.6408 z m 1.32648,-81.595278 c -8.873263,0 -16.016595,7.143334 -16.016595,16.016588 0,18.29843 0.15348,51.43821 0.15348,51.43821 h 51.90071 c 8.87324,0 16.01608,-7.14337 16.01608,-16.0166 V 84.761752 Z m 3.014802,12.848828 c 3.96544,8e-6 7.2316,3.26561 7.2316,7.23108 0,3.0639 -1.95287,5.70379 -4.668449,6.74894 v 16.46412 L 111.0878,107.92726 c -0.44964,-0.93923 -0.70952,-1.98319 -0.70952,-3.0856 0,-3.96547 3.26611,-7.231072 7.2316,-7.23108 3.96549,-3.2e-5 7.23108,3.26559 7.23108,7.23108 0,3.9655 -3.26559,7.23215 -7.23108,7.23212 -1.12589,0 -2.19169,-0.27057 -3.14606,-0.73846 l -20.223583,20.0825 h 16.836193 c 1.04489,-2.7156 3.68406,-4.66845 6.7479,-4.66845 3.96549,0 7.23212,3.26561 7.23212,7.23108 0,3.96549 -3.26663,7.23212 -7.23212,7.23212 -3.18652,0 -5.91744,-2.11075 -6.86883,-4.99711 H 86.020589 v -24.50445 c -2.88643,-0.95161 -4.997627,-3.68276 -4.997627,-6.86935 0,-3.96549 3.266585,-7.231112 7.232115,-7.23108 z m 0,4.79764 c -1.372685,-1e-5 -2.434476,1.06094 -2.434476,2.43344 0,1.37249 1.061791,2.43448 2.434476,2.43448 1.372629,0 2.43396,-1.062 2.43396,-2.43448 0,-1.37248 -1.061331,-2.43344 -2.43396,-2.43344 z m 29.354803,0 c -1.37269,0 -2.43396,1.06096 -2.43396,2.43344 0,1.37248 1.06127,2.43448 2.43396,2.43448 1.37268,0 2.43344,-1.06199 2.43344,-2.43448 0,-1.3725 -1.06076,-2.43345 -2.43344,-2.43344 z m 0.21445,29.13879 c -1.37264,0 -2.43344,1.06097 -2.43344,2.43344 0,1.3725 1.0608,2.43448 2.43344,2.43448 1.37269,0 2.43448,-1.06198 2.43448,-2.43448 0,-1.37247 -1.06179,-2.43344 -2.43448,-2.43344 z"
         style="font-style:normal;font-variant:normal;font-weight:600;font-stretch:normal;font-size:10.7767px;font-family:Montserrat;-inkscape-font-specification:'Montserrat Semi-Bold';font-variant-ligatures:normal;font-variant-caps:normal;font-variant-numeric:normal;font-variant-east-asian:normal;fill:#000000;fill-opacity:0.94902;stroke-width:0.264583"
         id="path1836" />
    </g>
  </g>
</svg>
